<svg width="32" height="32" viewBox="0 0 32 32" fill="none" xmlns="http://www.w3.org/2000/svg">
<path d="M23.9049 2.42H27.6479C28.2029 2.42 28.6519 2.87 28.6519 3.424V9.632C28.6519 10.187 28.2019 10.636 27.6479 10.636H23.9049C23.3499 10.636 22.9009 10.186 22.9009 9.632V3.424C22.9009 2.869 23.3509 2.42 23.9049 2.42Z" fill="#EDF2FA"/>
<path d="M4.00198 28.313L27.648 28.308V14.345L15.413 5.70599L4.00098 14.345L4.00198 28.313Z" fill="#EDF2FA"/>
<path d="M2.21988 15.787L0.418879 13.487C0.076879 13.05 0.153879 12.419 0.590879 12.077L16.0149 0.00100708L19.0539 3.88301L3.62988 15.959C3.19288 16.301 2.56188 16.224 2.21988 15.787Z" fill="#FF5D5D"/>
<path d="M29.78 15.787L31.581 13.487C31.923 13.05 31.846 12.419 31.409 12.077L15.985 0.00100708L12.946 3.88301L28.37 15.959C28.807 16.301 29.438 16.224 29.78 15.787Z" fill="#FF5D5D"/>
<path d="M13.223 15.566H19.431C19.986 15.566 20.435 16.016 20.435 16.57V28.53C20.435 29.085 19.985 29.534 19.431 29.534H13.223C12.668 29.534 12.219 29.084 12.219 28.53V16.57C12.219 16.015 12.669 15.566 13.223 15.566Z" fill="#BF944E"/>
<path d="M2.54209 27.891H29.2911C29.8461 27.891 30.2951 28.341 30.2951 28.895V30.995C30.2951 31.55 29.8451 31.999 29.2911 31.999H2.54209C1.98709 31.999 1.53809 31.549 1.53809 30.995V28.895C1.53809 28.34 1.98809 27.891 2.54209 27.891Z" fill="#C1CADA"/>
</svg>
