<svg width="32" height="32" viewBox="0 0 32 32" fill="none" xmlns="http://www.w3.org/2000/svg">
<path d="M25.9198 13.76C22.5618 13.76 19.8398 16.482 19.8398 19.84V26.311C19.8398 26.802 20.2378 27.2 20.7288 27.2H31.1108C31.6018 27.2 31.9998 26.802 31.9998 26.311V19.84C31.9998 16.482 29.2778 13.76 25.9198 13.76Z" fill="#E8EEF7"/>
<path d="M25.9201 16.96C28.5711 16.96 30.7201 14.811 30.7201 12.16V8.24898C30.7201 7.75798 30.3221 7.35999 29.8311 7.35999H22.0091C21.5181 7.35999 21.1201 7.75798 21.1201 8.24898V12.16C21.1201 14.811 23.2691 16.96 25.9201 16.96Z" fill="#C37F48"/>
<path d="M23.2438 18.265L18.9618 13.509C18.0158 12.458 16.3968 12.373 15.3468 13.32C14.2958 14.266 14.2108 15.885 15.1578 16.935L19.4398 21.691C20.3858 22.742 22.0048 22.827 23.0548 21.88C24.1058 20.934 24.1908 19.315 23.2438 18.265Z" fill="#E8EEF7"/>
<path d="M21.76 15.68H20.48V16.96H21.76V15.68Z" fill="#E8EEF7"/>
<path d="M20.6738 15.411L18.9608 13.509C18.0148 12.458 16.3958 12.373 15.3458 13.32C14.2948 14.266 14.2098 15.885 15.1568 16.935L16.8698 18.837L20.6748 15.411H20.6738Z" fill="#C37F48"/>
<path d="M21.0098 4.79999H26.3788C29.1258 4.79999 31.3608 7.06799 31.3608 9.85599V10.013C31.3608 10.668 30.8368 11.2 30.1918 11.2H24.9778C22.1458 11.2 19.8418 8.86199 19.8418 5.98699C19.8418 5.33099 20.3658 4.79999 21.0108 4.79999H21.0098Z" fill="#636363"/>
<path opacity="0.07" d="M25.6001 4.80001V27.199H31.1111C31.6021 27.199 32.0001 26.801 32.0001 26.31V19.839C32.0001 17.919 31.1101 16.207 29.7201 15.092C30.3471 14.281 30.7201 13.263 30.7201 12.159V11.071C31.1001 10.875 31.3601 10.474 31.3601 10.012V9.85501C31.3601 7.06701 29.1251 4.79901 26.3781 4.79901H25.6001V4.80001Z" fill="white"/>
<path d="M6.08098 13.76C9.43898 13.76 12.161 16.482 12.161 19.84V26.311C12.161 26.802 11.763 27.2 11.272 27.2H0.889977C0.398977 27.2 0.000976562 26.802 0.000976562 26.311V19.84C0.000976562 16.482 2.72298 13.76 6.08098 13.76Z" fill="#FFE764"/>
<path d="M6.08076 16.96C3.42976 16.96 1.28076 14.811 1.28076 12.16V8.24898C1.28076 7.75798 1.67876 7.35999 2.16976 7.35999H9.99176C10.4828 7.35999 10.8808 7.75798 10.8808 8.24898V12.16C10.8808 14.811 8.73176 16.96 6.08076 16.96Z" fill="#FFB87F"/>
<path d="M10.2402 15.68H11.5202V16.96H10.2402V15.68Z" fill="#FFE764"/>
<path d="M8.7569 18.265L13.0389 13.509C13.9849 12.458 15.6039 12.373 16.6539 13.32C17.7049 14.266 17.7899 15.885 16.8429 16.935L12.5609 21.691C11.6149 22.742 9.9959 22.827 8.9459 21.88C7.8949 20.934 7.8099 19.315 8.7569 18.265Z" fill="#FFE764"/>
<path d="M11.3262 15.411L13.0392 13.509C13.9852 12.458 15.6042 12.373 16.6542 13.32C17.7052 14.266 17.7902 15.885 16.8432 16.935L15.1302 18.837L11.3252 15.411H11.3262Z" fill="#FFB87F"/>
<path d="M10.9911 4.79999H5.62214C2.87514 4.79999 0.640137 7.06799 0.640137 9.85599V10.013C0.640137 10.668 1.16414 11.2 1.80914 11.2H7.02314C9.85514 11.2 12.1591 8.86199 12.1591 5.98699C12.1591 5.33099 11.6351 4.79999 10.9901 4.79999H10.9911Z" fill="#EDD65C"/>
<path opacity="0.07" d="M10.5139 15.68H11.0839L13.0389 13.509C13.9849 12.458 15.6039 12.373 16.6539 13.32C17.7039 14.267 17.7899 15.885 16.8429 16.935L15.1299 18.837L11.3249 15.411L13.0379 13.509C13.9839 12.458 15.6029 12.373 16.6529 13.32C17.7029 14.267 17.7889 15.885 16.8419 16.935L12.5599 21.691C12.4369 21.828 12.3019 21.948 12.1589 22.052V26.311C12.1589 26.802 11.7609 27.2 11.2699 27.2H6.39893V4.80099H10.9889C11.6349 4.80099 12.1579 5.33299 12.1579 5.98799C12.1579 7.30499 11.6739 8.509 10.8779 9.428V12.161C10.8779 13.266 10.5049 14.283 9.87793 15.094C10.1029 15.274 10.3149 15.471 10.5119 15.681L10.5139 15.68Z" fill="white"/>
</svg>
