<svg width="32" height="32" viewBox="0 0 32 32" fill="none" xmlns="http://www.w3.org/2000/svg">
<path d="M16 29.076C15.73 29.076 15.511 28.858 15.511 28.589V26.893C15.511 26.624 15.73 26.406 16 26.406C16.27 26.406 16.489 26.624 16.489 26.893V28.589C16.489 28.858 16.27 29.076 16 29.076Z" fill="#F94141"/>
<path d="M16 31.999C14.921 31.999 14.043 31.125 14.043 30.05C14.043 28.975 14.921 28.101 16 28.101C17.079 28.101 17.957 28.975 17.957 30.05C17.957 31.125 17.079 31.999 16 31.999ZM16 29.076C15.461 29.076 15.022 29.513 15.022 30.05C15.022 30.587 15.461 31.025 16 31.025C16.539 31.025 16.978 30.588 16.978 30.05C16.978 29.513 16.539 29.076 16 29.076Z" fill="#FFBF3E"/>
<path d="M1.9729 4.205H30.0279V25.718H1.9729V4.205Z" fill="#F3F3F3"/>
<path d="M1.9729 4.205H30.0279V7.239H1.9729V4.205Z" fill="#DCDCDC"/>
<path d="M31.981 2.13801V3.27401C31.981 4.45501 31.02 5.41101 29.836 5.41101H2.16502C0.98002 5.41101 0.0200195 4.45501 0.0200195 3.27401V2.13801C0.0200195 0.958007 0.98002 0.00100708 2.16502 0.00100708H29.836C31.02 0.00100708 31.981 0.958007 31.981 2.13801Z" fill="#F28800"/>
<path d="M31.9809 2.13801V3.27401C31.9809 4.45501 31.0199 5.41101 29.8359 5.41101H4.5129C3.3289 5.41101 2.3689 4.45501 2.3689 3.27401V2.13801C2.3689 0.958007 3.3289 0.00100708 4.5129 0.00100708H29.8359C31.0199 0.00100708 31.9809 0.958007 31.9809 2.13801Z" fill="#FF9E00"/>
<path d="M31.981 25.865C31.981 26.238 31.829 26.576 31.583 26.821C31.337 27.066 30.998 27.217 30.623 27.217H1.37702C0.62802 27.217 0.0200195 26.612 0.0200195 25.865C0.0200195 25.491 0.17202 25.153 0.41802 24.909C0.66402 24.665 1.00302 24.513 1.37802 24.513H30.624C31.374 24.513 31.982 25.119 31.982 25.866L31.981 25.865Z" fill="#F28800"/>
<path d="M31.981 25.865C31.981 26.238 31.829 26.576 31.583 26.821C31.337 27.066 30.998 27.217 30.623 27.217H3.43197C2.68297 27.217 2.07397 26.612 2.07397 25.865C2.07397 25.491 2.22597 25.153 2.47197 24.909C2.71797 24.665 3.05597 24.513 3.43197 24.513H30.623C31.373 24.513 31.981 25.119 31.981 25.866V25.865Z" fill="#FF9E00"/>
<path d="M24.7241 18.659L21.7001 16.133C21.2601 15.779 20.9151 15.897 20.9151 16.408V17.848C20.0421 17.782 19.2071 17.462 18.5121 16.927C18.0951 16.588 17.7161 16.206 17.3811 15.786L17.1691 16.077C16.7681 16.612 16.3841 17.163 15.9121 17.69C16.2731 18.095 16.6691 18.467 17.0981 18.799C18.2001 19.655 19.5381 20.149 20.9301 20.215V21.734C20.9301 22.222 21.2601 22.332 21.7151 21.978L24.7391 19.476C24.8581 19.37 24.9271 19.219 24.9271 19.059C24.9221 18.901 24.8471 18.754 24.7231 18.658L24.7241 18.659Z" fill="#5FA064"/>
<path d="M8.81107 12.175C10.5141 12.192 12.1241 12.957 13.2111 14.266C13.3841 14.039 13.5641 13.804 13.7441 13.553C14.0341 13.154 14.3321 12.77 14.6541 12.363C14.3011 12.006 13.9201 11.676 13.5171 11.376C12.1801 10.394 10.5721 9.84699 8.91307 9.80999C8.77907 9.79499 8.64607 9.84099 8.55007 9.93599C8.45407 10.031 8.40607 10.162 8.41807 10.296V11.659C8.41807 12.129 8.68507 12.168 8.81007 12.176L8.81107 12.175Z" fill="#5FA064"/>
<path d="M18.514 13.089C19.207 12.549 20.046 12.228 20.922 12.169V13.585C20.922 14.104 21.253 14.214 21.709 13.868L24.739 11.343C24.858 11.24 24.927 11.091 24.928 10.934C24.928 10.774 24.859 10.623 24.739 10.517L21.693 8.024C21.252 7.662 20.906 7.78 20.906 8.268V9.841C19.51 9.907 18.169 10.401 17.065 11.257C16.07 12.09 15.198 13.059 14.476 14.136C13.044 16.071 11.8 17.754 8.76198 17.888C8.54398 17.9 8.37198 18.079 8.36798 18.297V19.705C8.34998 19.836 8.39398 19.968 8.48598 20.063C8.57798 20.158 8.70898 20.206 8.83998 20.193C10.516 20.161 12.141 19.611 13.492 18.62C14.613 17.73 15.585 16.668 16.373 15.474C16.978 14.588 17.697 13.787 18.514 13.091V13.089Z" fill="#5FA064"/>
</svg>
