<svg width="32" height="32" viewBox="0 0 32 32" fill="none" xmlns="http://www.w3.org/2000/svg">
<path d="M3.25998 0.00100708H28.74C30.54 0.00100708 31.999 1.46001 31.999 3.26001V28.74C31.999 30.54 30.54 31.999 28.74 31.999H3.25998C1.45998 31.999 0.000976562 30.54 0.000976562 28.74V3.26001C0.000976562 1.46001 1.45998 0.00100708 3.25998 0.00100708Z" fill="#F8BC2B"/>
<path d="M3.75397 2.66699H28.247C28.847 2.66699 29.333 3.15299 29.333 3.75299V28.246C29.333 28.846 28.847 29.332 28.247 29.332H3.75397C3.15397 29.332 2.66797 28.846 2.66797 28.246V3.75299C2.66797 3.15299 3.15397 2.66699 3.75397 2.66699Z" fill="#FFFBF2"/>
<path d="M16 2.66699H28.246C28.846 2.66699 29.332 3.15299 29.332 3.75299V15.999H15.999V2.66599L16 2.66699Z" fill="#5FA064"/>
<path d="M2.66699 16H16V29.333H3.75399C3.15399 29.333 2.66799 28.847 2.66799 28.247V16.001L2.66699 16Z" fill="#5FA064"/>
</svg>
