<svg width="32" height="32" viewBox="0 0 32 32" fill="none" xmlns="http://www.w3.org/2000/svg">
<g clip-path="url(#clip0)">
<path d="M13.489 9.969V5.205H1.54C0.693 5.205 0 5.883 0 6.711V18.399H4.871V19.938C4.871 20.946 5.714 21.771 6.745 21.771C7.776 21.771 8.619 20.946 8.619 19.938V18.399H13.49V13.635H11.916C10.886 13.635 10.042 12.81 10.042 11.802C10.042 10.794 10.885 9.969 11.916 9.969H13.49H13.489Z" fill="#A5D647"/>
<path d="M6.745 21.771C5.715 21.771 4.871 20.946 4.871 19.938V18.399H0V30.087C0 30.915 0.693 31.593 1.54 31.593H13.489V26.829H15.063C16.093 26.829 16.937 26.004 16.937 24.996C16.937 23.988 16.094 23.163 15.063 23.163H13.489V18.399H8.618V19.938C8.618 20.946 7.775 21.771 6.744 21.771H6.745Z" fill="#FFE764"/>
<path d="M13.4888 18.399V23.163H15.0628C16.0928 23.163 16.9358 23.988 16.9368 24.996C16.9378 26.004 16.0938 26.829 15.0628 26.829H13.4888V31.593H25.4378C26.2848 31.593 26.9778 30.915 26.9778 30.087V18.399H22.1068V16.86C22.1068 15.852 21.2638 15.027 20.2328 15.027C19.2018 15.027 18.3588 15.852 18.3588 16.86V18.399H13.4878H13.4888Z" fill="#42B0F9"/>
<path d="M18.511 13.601H23.382V12.062C23.382 11.054 24.225 10.23 25.256 10.23C26.287 10.23 27.13 11.054 27.13 12.062V13.601H32.001V1.913C32.001 1.085 31.308 0.406998 30.461 0.406998H18.512V5.171H16.938C15.908 5.171 15.064 5.995 15.064 7.004C15.064 8.013 15.907 8.837 16.938 8.837H18.512V13.601H18.511Z" fill="#FF6555"/>
</g>
<defs>
<clipPath id="clip0">
<rect width="32" height="32" fill="white"/>
</clipPath>
</defs>
</svg>
